<?xml version="1.0" encoding="UTF-8"?>
<svg id="Layer_2" data-name="Layer 2" xmlns="http://www.w3.org/2000/svg" viewBox="0 0 432.59 214.23">
  <defs>
    <style>
      .cls-1 {
        fill: #1f4f3c;
      }

      .cls-2 {
        fill: #a77f5b;
      }
    </style>
  </defs>
  <g id="Layer_1-2" data-name="Layer 1">
    <g>
      <g>
        <g>
          <path class="cls-1" d="M86.95,129.9c0,9.43-9.73,13.08-21.29,13.08-8.21,0-15.81-2.13-20.07-5.47l4.87-9.73c0,6.39,5.78,13.38,15.2,13.38,6.69,0,13.68-2.43,13.68-8.21,0-13.07-33.14-10.64-33.14-29.5,0-9.43,10.95-12.77,20.07-12.77,7.3,0,13.38,2.13,17.64,5.47l-4.86,9.73c0-6.39-4.26-13.38-12.77-13.38-5.17,0-12.77,1.52-12.77,8.21,0,12.47,33.45,10.03,33.45,29.19Z"/>
          <path class="cls-1" d="M125.7,125.34c0,9.74-8.21,17.64-17.64,17.64-9.43,0-17.64-7.9-17.64-17.64,0-9.74,8.21-17.64,17.64-17.64,9.42,0,17.64,7.89,17.64,17.64ZM115.33,124.71c-.76-8.7-4.1-15.52-8.65-15.12-4.55.4-6.65,7.69-5.89,16.39.76,8.7,4.1,15.51,8.65,15.11,4.55-.4,6.66-7.69,5.89-16.39Z"/>
          <path class="cls-1" d="M167.82,141.46v.91h-9.73s-2.48,0-3.35-3.57c-1.37,2.36-3.95,4.18-8.82,4.18-10.95,0-14.59-5.48-14.59-11.56v-10.95c0-6.39-3.65-6.39-3.65-6.39v-1.18c4.16,1.56,11.56,1.83,11.56,1.83h1.82v16.69c0,3.34-.31,9.73,6.39,9.73,6.99,0,6.99-6.99,6.99-9.73v-10.95c0-6.39-3.65-6.39-3.65-6.39v-.91c6.39,0,8.68-1.05,11.56-2.76h1.82v24.66c0,6.39,3.65,6.39,3.65,6.39Z"/>
          <path class="cls-1" d="M185.19,141.46v.91h-10.95s-3.65,0-3.65-6.39v-20.37c0-6.39-3.65-6.39-3.65-6.39v-.91c3.35.12,9.52-3.44,11.56-5.15h1.82v5.15s4.86,0,4.86,0v1.83h-4.86s0,24.02,0,24.02c0,7.3,4.86,7.3,4.86,7.3Z"/>
          <path class="cls-1" d="M227.41,141.46v.91h-17.03v-.91s3.65,0,3.65-6.39v-15.81c0-3.35.3-9.73-6.39-9.73-6.99,0-6.99,6.99-6.99,9.73v15.81c0,6.39,3.65,6.39,3.65,6.39v.91h-17.03v-.91s3.65,0,3.65-6.39v-31.63c0-6.39-3.08-6.39-3.08-6.39v-.91c6.39,0,10.08-3.04,10.99-4.87h1.82v20.12c1.44-2.12,3.99-3.7,8.51-3.7,10.95,0,14.6,5.47,14.6,11.56v15.81c0,6.39,3.65,6.39,3.65,6.39Z"/>
          <path class="cls-1" d="M259.96,135.1v1.8c-1.22,1.82-5.17,6.08-12.77,6.08-10.64,0-18.85-7.9-18.85-17.64,0-.41.01-.81.04-1.22.65-9.17,8.56-16.42,17.6-16.42,8.21,0,13.99,4.86,13.99,15.81-8.24,0-13.55,1.36-16.24,4.16-1.67,1.74-2.41,4.1-2.32,7.41,1.96,3.12,4.86,4.86,8.52,4.86,6.69,0,10.03-4.84,10.03-4.84ZM240.08,130.53c.45-1.59,1.24-2.98,2.33-4.12,1.52-1.58,3.64-2.73,6.47-3.51.44-.12.89-.23,1.36-.34-.03-7.97-.48-13.03-4.86-13.03-4.87,0-7.11,6.74-6.78,14.59.03.61.07,1.23.12,1.85.18,2.09.56,3.99,1.11,5.66.07-.38.16-.75.26-1.11Z"/>
          <path class="cls-1" d="M297.73,112.57l-4.87,9.73c0-10.64-4.25-12.77-7.3-12.77-6.69,0-7.3,7.03-7.3,9.73v15.82c0,6.39,3.65,6.39,3.65,6.39v.91h-17.03v-.91s3.65,0,3.65-6.39v-14.6c0-6.39-3.65-6.39-3.65-6.39v-.91c6.39,0,10.64-3.04,11.56-4.87h1.82v3.25c1.36-2.2,3.68-3.86,7.6-3.86,4.87,0,8.21,1.82,11.86,4.86Z"/>
          <path class="cls-1" d="M336.59,119.26c0-6.08-3.65-11.56-14.6-11.56-4.53,0-7.08,1.58-8.51,3.7v-3.09s-1.82,0-1.82,0c-.91,1.82-5.17,4.86-11.56,4.86v.91s3.65,0,3.65,6.39v14.6c0,6.39-3.65,6.39-3.65,6.39v.91s17.03,0,17.03,0v-.91s-3.65,0-3.65-6.39v-15.81c0-2.74,0-9.73,6.99-9.73s6.39,6.39,6.39,9.73v10.43s-.05,9.14-.05,9.14c.5-1.04,1.53-1.99,5.98-3.4,3.88-1.23,3.85-4.52,3.78-5.35l.02-10.82Z"/>
        </g>
        <path class="cls-1" d="M42,177.69l-.13,1.82c-1.02,1.45-6.01,7.51-18.15,6.66-14.26-1-24.67-13.46-23.66-27.87,1.01-14.41,13.23-25.29,27.3-24.31,5.94.41,11.31,2.77,15.39,6.56l-5.53,9.37c.44-6.37-3.62-13.66-10.6-14.15-9.4-.66-16.53,11.14-16.29,24.58.24,13.43,6.92,22.32,17.23,23.04,9.71.68,14.42-5.7,14.42-5.7Z"/>
        <path class="cls-1" d="M81.67,184.64v.91h-9.73s-1.83,0-2.9-2.26c-1.37,1.74-4.19,2.87-9.27,2.87-9.73,0-14.59-4.26-14.59-10.64,0-6.39,4.86-10.64,14.59-10.64,4.28,0,6.96.81,8.51,2.1-.05-8.06-.84-14.26-7.29-14.26-3.04,0-7.3,2.13-7.3,12.77l-4.87-9.73c3.65-2.74,6.39-4.86,12.16-4.86,11.86,0,17.03,6.08,17.03,17.03v10.34c0,6.39,3.65,6.39,3.65,6.39ZM68.29,171.11c0-4.36-5.17-4.41-6.08-4.41-5.17,0-7.3,3.81-7.3,8.82,0,5.01,2.13,8.82,7.3,8.82.91,0,6.08-.05,6.08-4.42v-8.81Z"/>
        <path class="cls-1" d="M117.09,155.75l-4.87,9.73c0-10.64-4.25-12.77-7.3-12.77-6.69,0-7.3,7.03-7.3,9.73v15.82c0,6.39,3.65,6.39,3.65,6.39v.91h-17.03v-.91s3.65,0,3.65-6.39v-14.6c0-6.39-3.65-6.39-3.65-6.39v-.91c6.39,0,10.64-3.04,11.56-4.87h1.82v3.25c1.36-2.2,3.68-3.86,7.6-3.86,4.87,0,8.21,1.82,11.86,4.86Z"/>
        <path class="cls-1" d="M137.46,184.64v.91h-10.95s-3.65,0-3.65-6.39v-20.37c0-6.39-3.65-6.39-3.65-6.39v-.91c6.39,0,10.64-5.32,11.56-8.51,0,0,0,0,0,0h1.82v8.51s4.86,0,4.86,0v1.83h-4.86s0,24.02,0,24.02c0,7.3,4.86,7.3,4.86,7.3Z"/>
        <path class="cls-1" d="M173.31,168.53c0,9.74-8.21,17.64-17.64,17.64-9.43,0-17.64-7.9-17.64-17.64,0-9.74,8.21-17.64,17.64-17.64,9.42,0,17.64,7.89,17.64,17.64ZM162.94,167.89c-.76-8.7-4.1-15.52-8.65-15.12-4.55.4-6.66,7.69-5.89,16.39.76,8.7,4.1,15.51,8.65,15.11,4.55-.4,6.66-7.69,5.89-16.39Z"/>
        <path class="cls-1" d="M210.25,193.46c0,5.78-6.69,9.12-17.33,9.12-8.52,0-13.6-1.98-17.94-5.47l4.86-9.73c0,6.39,3.35,13.38,13.38,13.38,6.39,0,8.82-2.13,8.82-4.56,0-1.82-.91-4.56-10.03-4.56-5.98,0-9.73-2.13-9.73-6.39,0-2.7,2.34-4.74,3.54-5.61-4.91-2.52-8.41-7.64-8.41-13.55,0-8.4,7.08-15.2,15.2-15.2,8.13,0,15.21,6.81,15.21,15.2,0,8.4-7.08,15.2-15.21,15.2-1.7,0-3.36-.3-4.91-.85-.76.93-1.87,3.28,6.43,3.28,10.64,0,16.12,3.35,16.12,9.73ZM187.16,166.57c.64,7.36,3.21,13.15,6.62,12.85,3.41-.3,4.93-6.44,4.29-13.81-.64-7.36-3.21-13.15-6.62-12.85-3.41.3-4.93,6.44-4.29,13.81Z"/>
        <path class="cls-1" d="M243.81,155.75l-4.87,9.73c0-10.64-4.25-12.77-7.3-12.77-6.69,0-7.3,7.03-7.3,9.73v15.82c0,6.39,3.65,6.39,3.65,6.39v.91h-17.03v-.91s3.65,0,3.65-6.39v-14.6c0-6.39-3.65-6.39-3.65-6.39v-.91c6.39,0,10.64-3.04,11.56-4.87h1.82v3.25c1.36-2.2,3.68-3.86,7.6-3.86,4.87,0,8.21,1.82,11.86,4.86Z"/>
        <path class="cls-1" d="M280.66,184.64v.91h-9.73s-1.83,0-2.9-2.26c-1.37,1.74-4.19,2.87-9.27,2.87-9.73,0-14.59-4.26-14.59-10.64,0-6.39,4.86-10.64,14.59-10.64,4.28,0,6.96.81,8.51,2.1-.05-8.06-.84-14.26-7.29-14.26-3.04,0-7.3,2.13-7.3,12.77l-4.87-9.73c3.65-2.74,6.39-4.86,12.16-4.86,11.86,0,17.03,6.08,17.03,17.03v10.34c0,6.39,3.65,6.39,3.65,6.39ZM267.28,171.11c0-4.36-5.17-4.41-6.08-4.41-5.17,0-7.3,3.81-7.3,8.82,0,5.01,2.13,8.82,7.3,8.82.91,0,6.08-.05,6.08-4.42v-8.81Z"/>
        <path class="cls-1" d="M319.93,168.53c0,11.25-7.3,17.64-16.73,17.64-4.32,0-7.17-1.47-8.82-3.8v25.49c0,6.39-3.65,6.39-3.65,6.39h-9.73v-.91s3.65,0,3.65-6.39v-43.27c0-6.39-3.65-6.39-3.65-6.39v-.91c6.39,0,10.64-3.04,11.56-4.86h1.82v3.19c1.65-2.33,4.5-3.8,8.82-3.8,9.42,0,16.73,6.39,16.73,17.64ZM309.59,168.53c0-8.73-2.13-15.81-8.21-15.81-3.19,0-6.99,1.82-6.99,8.51v14.6c0,6.69,3.81,8.52,6.99,8.52,6.08,0,8.21-7.08,8.21-15.81Z"/>
        <path class="cls-1" d="M362.7,184.64v.91h-17.03v-.91s3.65,0,3.65-6.39v-15.81c0-3.35.3-9.73-6.39-9.73-6.99,0-6.99,6.99-6.99,9.73v15.81c0,6.39,3.65,6.39,3.65,6.39v.91h-17.03v-.91s3.65,0,3.65-6.39v-32.83c0-6.39,8.83-6.86,9.75-8.68v1.73s-.01,16.11-.01,16.11c1.44-2.12,3.99-3.7,8.51-3.7,10.95,0,14.6,5.47,14.6,11.56v15.81c0,6.39,3.65,6.39,3.65,6.39Z"/>
        <path class="cls-1" d="M396.02,178.28v1.8c-1.22,1.82-5.17,6.08-12.77,6.08-10.64,0-18.85-7.9-18.85-17.64,0-.41.01-.81.04-1.22.65-9.17,8.56-16.42,17.6-16.42,8.21,0,13.99,4.86,13.99,15.81-8.24,0-13.55,1.36-16.24,4.16-1.67,1.74-2.41,4.1-2.32,7.41,1.96,3.12,4.86,4.86,8.52,4.86,6.69,0,10.03-4.84,10.03-4.84ZM376.14,173.71c.45-1.59,1.24-2.98,2.33-4.12,1.52-1.58,3.64-2.73,6.47-3.51.44-.12.89-.23,1.36-.34-.03-7.97-.48-13.03-4.86-13.03-4.87,0-7.11,6.74-6.78,14.59.03.61.07,1.23.12,1.85.18,2.09.56,3.99,1.11,5.66.07-.38.16-.75.26-1.11Z"/>
        <path class="cls-1" d="M432.59,155.75l-4.87,9.73c0-10.64-4.25-12.77-7.3-12.77-6.69,0-7.3,7.03-7.3,9.73v15.82c0,6.39,3.65,6.39,3.65,6.39v.91h-17.03v-.91s3.65,0,3.65-6.39v-14.6c0-6.39-3.65-6.39-3.65-6.39v-.91c6.39,0,10.64-3.04,11.56-4.87h1.82v3.25c1.36-2.2,3.68-3.86,7.6-3.86,4.87,0,8.21,1.82,11.86,4.86Z"/>
      </g>
      <g>
        <circle class="cls-2" cx="122.24" cy="32.58" r="7.19"/>
        <path class="cls-2" d="M188.04,33.54C177.93,6.86,146.94-6.71,120.36,3.29c-27.05,9.76-41.24,40.95-30.97,67.8,9.9,27.32,41.51,41.45,68.5,30.77,27.02-10.16,40.86-41.55,30.14-68.33ZM91.28,50.83c.17-19.01,12.74-37.01,30.53-43.75,17.84-7.3,39.37-2.25,52.31,11.97,9.98,10.69,13.89,24.33,12.56,37.36-3.54-3.33-11.36-10.68-11.36-10.68l-1.67-1.57c-1.72,3.34-3.91,6.49-6.1,9.61-1.67,2.34-3.41,4.64-5.2,6.9-1.12-1.07-14.72-14.14-14.72-14.14l-1.48-1.42c-3.08,4.68-6.41,9.25-9.82,13.72-2.82,3.59-7.5,9.62-12.71,15.18l-13.04-12.75s-1.66-1.63-1.66-1.63c-2.06,4.15-7.06,12.74-12.05,14.61-3.7-6.89-5.77-14.84-5.6-23.42ZM139.21,61.01c2.49-3.34,4.89-6.71,7.23-10.17v22.76c0,2.96-1.23,5.78-3.4,7.79-4.39,4.07-12.31,10.95-20.28,15.35-4.48-1.66-8.69-3.97-12.48-6.84,10.71-4.98,22.08-19.95,28.92-28.88ZM98.89,77.66c2.52-1.24,4.53-3.29,6.23-5.35,1.68-2.08,3.13-4.24,4.43-6.52v18.41c0,1.1-.75,2.05-1.81,2.32l-1.14.28c-2.92-2.7-5.52-5.76-7.71-9.13ZM155.89,96.6c-9.78,3.69-19.78,3.91-28.89,1.47,16.95-11.19,31.53-25.83,43.35-42.31,1.3-1.83,2.55-3.66,3.76-5.56v29.88c0,3.02-1.33,5.87-3.6,7.85-4.15,3.62-9.04,6.59-14.62,8.67Z"/>
      </g>
      <circle class="cls-1" cx="207.34" cy="148.81" r="3.65"/>
    </g>
  </g>
</svg>